<?xml version="1.0" ?><svg xmlns="http://www.w3.org/2000/svg" xmlns:xlink="http://www.w3.org/1999/xlink" version="1.1" viewBox="0 0 32 32" style="enable-background:new 0 0 32 32;" xml:space="preserve"><style type="text/css">
	.st0{fill:#384970;}
</style><g id="Guides"/><g id="Icons"><path class="st0" d="M26.97,11.78l-6.23-1.2L18.3,4.55C17.92,3.61,17.02,3,16,3s-1.92,0.61-2.3,1.55l-2.44,6.03l-6.23,1.2   C3.85,12.01,3,13.04,3,14.24c0,0.79,0.38,1.54,1.01,2.01l4.37,3.27l-1.26,5.8C7.04,25.7,7,26.09,7,26.48   c0,0.67,0.26,1.31,0.74,1.78c0.84,0.84,2.24,0.97,3.22,0.29l5.04-3.5l5.04,3.5c0.42,0.3,0.92,0.45,1.44,0.45   c1.39,0,2.52-1.13,2.52-2.52c0-0.39-0.04-0.78-0.12-1.16l-1.26-5.8l4.37-3.27c0.63-0.47,1.01-1.22,1.01-2.01   C29,13.04,28.15,12.01,26.97,11.78z M26.8,14.65l-4.89,3.65c-0.31,0.23-0.46,0.63-0.38,1.01l1.39,6.43   c0.05,0.24,0.08,0.49,0.08,0.73c0,0.4-0.5,0.65-0.82,0.43l-5.61-3.9c-0.17-0.12-0.37-0.18-0.57-0.18s-0.4,0.06-0.57,0.18l-5.61,3.9   c-0.2,0.14-0.49,0.12-0.67-0.06C9.05,26.75,9,26.62,9,26.48c0-0.25,0.03-0.49,0.08-0.73l1.39-6.43c0.08-0.38-0.07-0.78-0.38-1.01   L5.2,14.65C5.08,14.55,5,14.4,5,14.24c0-0.24,0.17-0.45,0.41-0.5l6.76-1.31c0.33-0.06,0.61-0.29,0.74-0.61l2.64-6.53   c0.15-0.37,0.75-0.37,0.9,0l2.65,6.53c0.13,0.31,0.4,0.54,0.74,0.61l6.76,1.31C26.83,13.79,27,14,27,14.24   C27,14.4,26.92,14.55,26.8,14.65z"/></g></svg>